name ./resultDataOpenSim/trcMotMarkerGrf/sub06/grf-15-05.mot
datacolumns 19
datarows 12
range 1.02400000 1.06800000
endheader

                time	     ground_force_vx	     ground_force_vy	     ground_force_vz	     ground_force_px	     ground_force_py	     ground_force_pz	   l_ground_force_vx	   l_ground_force_vy	   l_ground_force_vz	   l_ground_force_px	   l_ground_force_py	   l_ground_force_pz	     ground_torque_x	     ground_torque_y	     ground_torque_z	   l_ground_torque_x	   l_ground_torque_y	   l_ground_torque_z	
          1.02400000	          0.00000000	          0.00000000	          0.00000000	          0.00000000	          0.00000000	          0.00000000	         66.02078741	        424.06598017	          9.31074401	          0.13863240	         -0.10000100	         -0.03822718	          0.00000000	          0.00000000	          0.00000000	          0.00000000	         -0.72560217	          0.00000000	
          1.02800000	          0.00000000	          0.00000000	          0.00000000	          0.00000000	          0.00000000	          0.00000000	         70.16963436	        434.41448061	          8.90821575	          0.13929042	         -0.10000100	         -0.03748554	          0.00000000	          0.00000000	          0.00000000	          0.00000000	         -0.86164372	          0.00000000	
          1.03200000	          0.00000000	          0.00000000	          0.00000000	          0.00000000	          0.00000000	          0.00000000	         74.42852627	        445.96693732	          8.33034847	          0.13985064	         -0.10000100	         -0.03675342	          0.00000000	          0.00000000	          0.00000000	          0.00000000	         -1.00249553	          0.00000000	
          1.03600000	          0.00000000	          0.00000000	          0.00000000	          0.00000000	          0.00000000	          0.00000000	         78.74625620	        458.50494496	          7.62309551	          0.14033582	         -0.10000100	         -0.03604201	          0.00000000	          0.00000000	          0.00000000	          0.00000000	         -1.14403261	          0.00000000	
          1.04000000	          0.00000000	          0.00000000	          0.00000000	          0.00000000	          0.00000000	          0.00000000	         83.09513515	        471.65197419	          6.82168855	          0.14084610	         -0.10000100	         -0.03534495	          0.00000000	          0.00000000	          0.00000000	          0.00000000	         -1.28134850	          0.00000000	
          1.04400000	          0.00000000	          0.00000000	          0.00000000	          0.00000000	          0.00000000	          0.00000000	         87.47368868	        484.96802710	          5.97149822	          0.14147738	         -0.10000100	         -0.03465082	          0.00000000	          0.00000000	          0.00000000	          0.00000000	         -1.40935450	          0.00000000	
          1.04800000	          0.00000000	          0.00000000	          0.00000000	          0.00000000	          0.00000000	          0.00000000	         91.90827405	        498.07359909	          5.13093999	          0.14226281	         -0.10000100	         -0.03394786	          0.00000000	          0.00000000	          0.00000000	          0.00000000	         -1.52345291	          0.00000000	
          1.05200000	          0.00000000	          0.00000000	          0.00000000	          0.00000000	          0.00000000	          0.00000000	         96.45674512	        510.67062459	          4.35127954	          0.14317384	         -0.10000100	         -0.03323331	          0.00000000	          0.00000000	          0.00000000	          0.00000000	         -1.62012450	          0.00000000	
          1.05600000	          0.00000000	          0.00000000	          0.00000000	          0.00000000	          0.00000000	          0.00000000	        101.19488157	        522.48590408	          3.66475401	          0.14414683	         -0.10000100	         -0.03251606	          0.00000000	          0.00000000	          0.00000000	          0.00000000	         -1.69724795	          0.00000000	
          1.06000000	          0.00000000	          0.00000000	          0.00000000	          0.00000000	          0.00000000	          0.00000000	        106.17840619	        533.23211304	          3.08592488	          0.14511122	         -0.10000100	         -0.03181337	          0.00000000	          0.00000000	          0.00000000	          0.00000000	         -1.75408920	          0.00000000	
          1.06400000	          0.00000000	          0.00000000	          0.00000000	          0.00000000	          0.00000000	          0.00000000	        111.40722552	        542.59512967	          2.60700436	          0.14601067	         -0.10000100	         -0.03115085	          0.00000000	          0.00000000	          0.00000000	          0.00000000	         -1.79106629	          0.00000000	
          1.06800000	          0.00000000	          0.00000000	          0.00000000	          0.00000000	          0.00000000	          0.00000000	        116.82088495	        550.22537041	          2.19382057	          0.14680857	         -0.10000100	         -0.03055982	          0.00000000	          0.00000000	          0.00000000	          0.00000000	         -1.80947499	          0.00000000	
